Coordinates
version=1
nRows=43
nColumns=12
inDegrees=yes

Units are S.I. units (second, meters, Newtons, ...)
Angles are in degrees

endheader
time	SC_y	SC_z	SC_x	AC_y	AC_z	AC_x	GH_y	GH_z	GH_yy	EL_x	PS_y
       0.0               -49.7          16.38          33.99          40.19          9.795         -11.53          134.4          14.18         -136.1          91.56          75.08
   0.03557               -49.7          16.38           34.0          40.19          9.795         -11.53          134.3          14.18         -136.1          91.56          75.07
   0.07114              -49.69          16.39           34.0          40.19          9.794         -11.53          134.3          14.19         -136.1          91.55          75.06
    0.1067              -49.69          16.39          34.01           40.2          9.794         -11.53          134.2          14.19         -136.1          91.54          75.05
    0.1423              -49.68          16.39          34.01           40.2          9.793         -11.53          134.2          14.19         -136.0          91.53          75.04
    0.1778              -49.67          16.39          34.02           40.2          9.792         -11.53          134.1           14.2         -136.0          91.51          75.03
    0.2134              -49.67          16.39          34.02           40.2          9.791         -11.53          134.1           14.2         -136.0           91.5          75.02
     0.249              -49.66           16.4          34.03           40.2          9.791         -11.53          134.0          14.21         -136.0          91.49           75.0
    0.2846              -49.65           16.4          34.03           40.2           9.79         -11.53          134.0          14.21         -136.0          91.48          74.99
    0.3201              -49.64           16.4          34.04          40.21          9.789         -11.53          133.9          14.22         -136.0          91.46          74.97
    0.3557              -49.63           16.4          34.05          40.21          9.788         -11.53          133.8          14.23         -136.0          91.45          74.96
    0.3913              -49.62          16.41          34.05          40.21          9.787         -11.53          133.7          14.23         -136.0          91.43          74.94
    0.4268              -49.61          16.41          34.06          40.21          9.785         -11.54          133.7          14.24         -136.0          91.41          74.92
    0.4624               -49.6          16.41          34.07          40.22          9.784         -11.54          133.6          14.25         -136.0          91.39           74.9
     0.498              -49.58          16.42          34.08          40.22          9.783         -11.54          133.5          14.26         -136.0          91.37          74.87
    0.5335              -49.57          16.42          34.09          40.22          9.781         -11.54          133.4          14.26         -136.0          91.35          74.85
    0.5691              -49.55          16.42           34.1          40.22           9.78         -11.54          133.2          14.27         -136.0          91.32          74.82
    0.6047              -49.54          16.43          34.11          40.23          9.778         -11.54          133.1          14.29         -136.0          91.29          74.79
    0.6403              -49.52          16.43          34.13          40.23          9.776         -11.54          133.0           14.3         -136.0          91.26          74.76
    0.6758               -49.5          16.44          34.14          40.24          9.774         -11.55          132.8          14.31         -136.0          91.23          74.72
    0.7114              -49.47          16.45          34.16          40.24          9.771         -11.55          132.7          14.32         -136.0           91.2          74.68
     0.747              -49.45          16.45          34.17          40.25          9.769         -11.55          132.5          14.34         -136.0          91.16          74.64
    0.7825              -49.42          16.46          34.19          40.25          9.766         -11.55          132.3          14.36         -136.0          91.11          74.59
    0.8181              -49.39          16.47          34.21          40.26          9.763         -11.56          132.1          14.38         -136.0          91.06          74.54
    0.8537              -49.36          16.48          34.24          40.27          9.759         -11.56          131.8           14.4         -136.0          91.01          74.48
    0.8892              -49.32          16.49          34.26          40.28          9.755         -11.56          131.6          14.42         -135.9          90.95          74.42
    0.9248              -49.28           16.5          34.29          40.29          9.751         -11.57          131.2          14.45         -135.9          90.88          74.35
    0.9604              -49.23          16.51          34.33           40.3          9.746         -11.57          130.9          14.48         -135.9          90.81          74.26
     0.996              -49.18          16.53          34.36          40.31          9.741         -11.58          130.5          14.51         -135.9          90.72          74.17
     1.032              -49.12          16.54          34.41          40.32          9.734         -11.59          130.1          14.55         -135.9          90.62          74.07
     1.067              -49.05          16.56          34.45          40.34          9.727         -11.59          129.6           14.6         -135.9          90.51          73.95
     1.103              -48.97          16.59          34.51          40.35          9.719          -11.6          129.0          14.65         -135.8          90.38          73.81
     1.138              -48.88          16.61          34.57          40.37          9.709         -11.61          128.3          14.71         -135.8          90.24          73.65
     1.174              -48.77          16.64          34.65           40.4          9.698         -11.62          127.5          14.77         -135.8          90.07          73.47
     1.209              -48.64          16.67          34.74          40.42          9.685         -11.64          126.6          14.85         -135.8          89.87          73.25
     1.245               -48.5          16.72          34.84          40.46           9.67         -11.65          125.5          14.95         -135.7          89.63           73.0
     1.281              -48.32          16.76          34.96           40.5          9.652         -11.67          124.3          15.06         -135.7          89.35          72.69
     1.316              -48.11          16.82          35.11          40.54           9.63         -11.69          122.7          15.19         -135.6          89.01          72.33
     1.352              -47.86          16.89          35.29           40.6          9.603         -11.72          120.9          15.35         -135.5          88.61          71.89
     1.387              -47.55          16.98          35.51          40.67          9.571         -11.75          118.6          15.55         -135.4          88.11          71.36
     1.423              -47.16          17.08          35.77          40.75          9.531         -11.79          115.8          15.79         -135.3           87.5           70.7
     1.458              -46.69          17.21          36.11          40.85          9.482         -11.84          112.4           16.1         -135.2          86.74          69.87
     1.494              -46.09          17.38          36.53          40.99          9.419          -11.9          108.0          16.48         -135.0          85.77          68.84
